<?xml version="1.0" encoding="UTF-8"?>
<svg width="305.52" height="304.58" viewBox="97.403 97.715 305.52 304.58" xmlns="http://www.w3.org/2000/svg">
<defs>
<linearGradient id="a">
<stop stop-color="#1f6b51" offset="0"/>
</linearGradient>
<linearGradient id="b">
<stop stop-color="#36a6ba" offset="0"/>
</linearGradient>
<linearGradient id="c">
<stop stop-color="#a3dff5" offset="0"/>
</linearGradient>
</defs>
<path d="m398.99 250c0 82.286-66.706 148.99-148.99 148.99s-148.99-66.706-148.99-148.99 66.706-148.99 148.99-148.99 148.99 66.706 148.99 148.99zm-148.99-69.673c-38.479 0-69.673 31.194-69.673 69.673s31.194 69.673 69.673 69.673 69.673-31.194 69.673-69.673-31.194-69.673-69.673-69.673z" fill="#5a6c9e" visibility="hidden"/>
<path d="m400 250c0 12.642-1.564 24.918-4.509 36.647l-66.879-21.731c0.911-4.832 1.388-9.819 1.388-14.916 0-5.098-0.477-10.084-1.388-14.916l66.879-21.731c2.945 11.729 4.509 24.005 4.509 36.647zm-139.89 149.66v-70.297c10.176-1.283 19.758-4.478 28.372-9.213l41.324 56.878c-20.435 12.865-44.194 20.935-69.696 22.632zm62.263-115.52 66.879 21.73c-9.309 23.18-24.239 43.499-43.102 59.268l-41.324-56.877c7.258-6.832 13.238-15.004 17.547-24.121zm-17.547-92.403 41.323-56.877c18.864 15.769 33.794 36.087 43.103 59.267l-66.879 21.731c-4.309-9.117-10.29-17.29-17.547-24.121zm-44.716-21.106v-70.297c25.502 1.697 49.26 9.767 69.696 22.632l-41.324 56.878c-8.615-4.735-18.196-7.93-28.372-9.213zm-160.11 79.368c0-12.642 1.564-24.918 4.509-36.647l66.879 21.731c-0.911 4.832-1.388 9.819-1.388 14.916 0 5.098 0.477 10.084 1.388 14.916l-66.879 21.731c-2.945-11.728-4.509-24.005-4.509-36.647zm139.89-149.66v70.297c-10.176 1.283-19.758 4.477-28.372 9.212l-41.324-56.878c20.436-12.864 44.194-20.934 69.696-22.631zm-62.264 115.52-66.879-21.73c9.309-23.181 24.24-43.5 43.104-59.269l41.323 56.876c-7.258 6.832-13.239 15.005-17.548 24.123zm17.548 92.404-41.323 56.877c-18.864-15.769-33.794-36.088-43.104-59.269l66.879-21.73c4.309 9.118 10.29 17.29 17.548 24.122zm44.716 21.105v70.297c-25.502-1.697-49.261-9.767-69.697-22.632l41.324-56.877c8.615 4.735 18.196 7.929 28.373 9.212z" fill="url(#a)" stroke="url(#a)" stroke-linejoin="round" stroke-width="5px"/>
<path transform="matrix(.97437 .22495 -.22495 .97437 62.645 -49.83)" d="m385 250c0 11.025-1.322 21.741-3.815 31.998l-66.986-21.765c0.527-3.333 0.801-6.751 0.801-10.233s-0.274-6.9-0.801-10.233l66.986-21.765c2.493 10.257 3.815 20.973 3.815 31.998zm-124.89 134.63v-70.408c6.91-1.079 13.459-3.246 19.467-6.321l41.389 56.968c-17.926 11.098-38.643 18.117-60.856 19.761zm47.851-105.17 66.985 21.765c-8.272 20.155-21.278 37.866-37.636 51.748l-41.388-56.965c4.833-4.824 8.91-10.404 12.039-16.548zm-12.04-75.464 41.388-56.966c16.358 13.883 29.365 31.594 37.637 51.749l-66.986 21.765c-3.129-6.144-7.206-11.724-12.039-16.548zm-35.811-18.213v-70.408c22.213 1.644 42.93 8.663 60.856 19.761l-41.389 56.968c-6.008-3.075-12.557-5.242-19.467-6.321zm-145.11 64.219c0-11.025 1.322-21.741 3.815-31.998l66.986 21.765c-0.527 3.333-0.801 6.751-0.801 10.233s0.274 6.9 0.801 10.233l-66.986 21.765c-2.493-10.257-3.815-20.973-3.815-31.998zm124.89-134.63v70.408c-6.91 1.078-13.459 3.245-19.467 6.32l-41.389-56.968c17.926-11.098 38.643-18.116 60.856-19.76zm-47.851 105.17-66.986-21.765c8.272-20.156 21.279-37.867 37.638-51.75l41.388 56.966c-4.833 4.824-8.911 10.405-12.04 16.549zm12.04 75.465-41.388 56.966c-16.358-13.883-29.366-31.595-37.638-51.75l66.986-21.765c3.129 6.144 7.207 11.725 12.04 16.549zm35.811 18.212v70.408c-22.213-1.644-42.931-8.663-60.857-19.761l41.39-56.967c6.008 3.074 12.557 5.241 19.467 6.32z" fill="url(#b)" stroke="url(#b)" stroke-linejoin="round" stroke-width="5px"/>
<path d="m293.34 138.09-30.95 63.457c-3.623-0.931-7.291-1.437-10.939-1.541l-12.261-69.538c17.942-1.64 36.448 0.744 54.15 7.622zm-71.548 70.616-50.805-49.063c14.002-12.234 30.589-20.952 48.299-25.65l12.262 69.536c-3.421 1.357-6.696 3.091-9.756 5.177zm-79.644-11.313c4.124-8.455 9.111-16.209 14.801-23.207l50.806 49.062c-0.974 1.542-1.874 3.154-2.692 4.831-0.818 1.678-1.534 3.379-2.15 5.095l-69.94-9.829c2.011-8.792 5.051-17.496 9.175-25.952zm59.874 66.671-62.342 33.149c-7.202-16.848-10.545-35.287-9.525-53.853l69.941 9.829c0.24 3.696 0.89 7.344 1.926 10.875zm17.427 25.525-30.95 63.457c-16.318-9.715-29.59-22.831-39.344-37.98l62.346-33.149c2.327 2.811 4.984 5.389 7.948 7.672zm-12.782 72.317 30.95-63.456c3.623 0.93 7.291 1.435 10.94 1.539l12.261 69.538c-17.943 1.64-36.449-0.742-54.151-7.621zm71.547-70.616 50.805 49.062c-14.002 12.234-30.588 20.951-48.298 25.649l-12.261-69.534c3.42-1.357 6.694-3.091 9.754-5.177z" fill="url(#c)" stroke="url(#c)" stroke-linejoin="round" stroke-width="5px"/>
</svg>
